# xmcd
#
# Track frame offsets:
#	150
#	21787
#	35172
#	47542
#	60222
#	73737
#	95600
#	112202
#	125202
#
# Disc length: 1826 seconds
#
# Revision: 0
# Processed by: cddbd v1.4PL0 Copyright (c) Steve Scherf et al.
# Submitted via: dBpowerAMP V4.0
#
DISCID=81072009
DTITLE=Rusty McHugh and Mike Fincher - Down At The Flora-Bama
DYEAR=1900
DGENRE=Southern Rock
TTITLE0=Who's Ya Poondaddy
TTITLE1=I Love Wal-Mart
TTITLE2=My Truck
TTITLE3=Down At The Flora-Bama
TTITLE4=I Ain't Been Cheatin'
TTITLE5=She Put A Louisana Liplock On My Alabama Porkchop
TTITLE6=Po Ass People
TTITLE7=Drive Me To Drinkin'
TTITLE8=On The Gulf Of Mexico
EXTD=
EXTT0=
EXTT1=
EXTT2=
EXTT3=
EXTT4=
EXTT5=
EXTT6=
EXTT7=
EXTT8=
PLAYORDER=
